<?xml version="1.0" encoding="UTF-8"?> <svg xmlns="http://www.w3.org/2000/svg" xmlns:xlink="http://www.w3.org/1999/xlink" width="222px" height="54px" viewBox="0 0 222 54" version="1.1"><!-- Generator: Sketch 62 (91390) - https://sketch.com --><title>betterpet</title><desc>Created with Sketch.</desc><g id="Symbols" stroke="none" stroke-width="1" fill="none" fill-rule="evenodd"><g id="header-final" transform="translate(0.000000, 0.000000)" fill="#0B132B" fill-rule="nonzero"><g id="betterpet"><path d="M12.3255299,41.7735849 C15.2547453,41.7735849 17.7845223,41.1529931 19.9148608,39.9118095 C22.0451993,38.670626 23.6714845,36.9252115 24.7937164,34.6755663 C25.9159483,32.4259211 26.4770642,29.8271929 26.4770642,26.8793819 C26.4770642,22.3413045 25.2311966,18.7438114 22.7394614,16.0869028 C20.2477262,13.4299942 16.8524992,12.1015399 12.5537804,12.1015399 C10.7658178,12.1015399 9.03491775,12.5281968 7.36108035,13.3815105 L7.36108035,13.3815105 L7.36108035,0 L0,0.639985284 L0,41.0754191 L3.76613413,41.0754191 L5.24976273,39.0972828 C6.31493198,39.8730225 7.47520563,40.5130078 8.73058368,41.0172387 C9.98596172,41.5214695 11.1842771,41.7735849 12.3255299,41.7735849 Z M12.9396139,34.6415094 C11.2676982,34.6415094 9.67008992,34.1132075 8.14678899,33.0566038 L8.14678899,33.0566038 L8.14678899,19.9811321 C9.78155096,18.8867925 11.3791592,18.3396226 12.9396139,18.3396226 C14.9459126,18.3396226 16.5156557,19.0849057 17.6488429,20.5754717 C18.7820302,22.0660377 19.3486239,24.0188679 19.3486239,26.4339623 C19.3486239,28.8490566 18.7727418,30.8207547 17.6209777,32.3490566 C16.4692136,33.8773585 14.908759,34.6415094 12.9396139,34.6415094 Z M44.5138798,40.754717 C46.7535168,40.754717 48.6894742,40.4657048 50.321752,39.8876804 C51.9540298,39.3096559 53.4724277,38.4799112 54.8769458,37.3984462 L52.7132288,32.1402886 C51.3087107,32.9234184 49.9990924,33.5200888 48.7843741,33.9302997 C47.5696557,34.3405105 46.2030976,34.545616 44.6846996,34.545616 C42.0654632,34.545616 40.1200158,34.0421754 38.8483575,33.0352941 C37.5766992,32.0284129 36.7510703,30.5740289 36.3714708,28.6721421 L54.9908257,28.6721421 L54.9908257,26.4346282 C54.9908257,23.7869034 54.5353063,21.390899 53.6242675,19.2466149 C52.7132288,17.1023307 51.3087107,15.3962264 49.4107132,14.1283019 C47.5127158,12.8603774 45.1781789,12.2264151 42.4071027,12.2264151 C39.5601065,12.2264151 37.0927099,12.8137625 35.0049127,13.9884573 C32.9171155,15.1631521 31.3133077,16.8319645 30.1934892,18.9948946 C29.0736707,21.1578246 28.5137615,23.6750277 28.5137615,26.5465039 C28.5137615,30.9842397 29.8708296,34.4617092 32.584966,36.9789123 C35.2991023,39.4961154 39.2754069,40.754717 44.5138798,40.754717 Z M47.8623853,23.4339623 L36.6605505,23.4339623 C36.9548515,21.7712264 37.5986352,20.5064858 38.5919013,19.6397406 C39.5851674,18.7729953 40.8175532,18.3396226 42.2890586,18.3396226 C43.760564,18.3396226 44.9653591,18.7641509 45.9034438,19.6132075 C46.8415284,20.4622642 47.494509,21.7358491 47.8623853,23.4339623 Z M69.7511597,41.7735849 C70.6665292,41.7735849 71.6867849,41.6021866 72.8119266,41.2593899 C73.9370683,40.9165932 74.7856922,40.5166637 75.3577982,40.0596015 L73.1837955,34.6891201 C72.1540047,35.1842709 71.1432842,35.4318462 70.1516339,35.4318462 C68.8548603,35.4318462 67.8536749,34.974784 67.1480775,34.0606595 C66.4424802,33.146535 66.0896815,31.9467466 66.0896815,30.4612943 L66.0896815,18.6919415 L73.4126379,18.6919415 L71.124214,12.9786634 L66.0896815,12.9786634 L66.0896815,5.09433962 L58.7095145,6.40839358 L58.7095145,12.9786634 L54.9908257,12.9786634 L54.9908257,18.6919415 L58.7095145,18.6919415 L58.7095145,31.7753483 C58.7095145,34.9366955 59.6820946,37.393405 61.6272549,39.145477 C63.5724152,40.8975489 66.2803835,41.7735849 69.7511597,41.7735849 Z M90.1181322,41.7735849 C91.0335017,41.7735849 92.0537573,41.6021866 93.1788991,41.2593899 C94.3040408,40.9165932 95.1526647,40.5166637 95.7247706,40.0596015 L93.550768,34.6891201 C92.5209772,35.1842709 91.5102567,35.4318462 90.5186063,35.4318462 C89.2218328,35.4318462 88.2206474,34.974784 87.51505,34.0606595 C86.8094526,33.146535 86.456654,31.9467466 86.456654,30.4612943 L86.456654,18.6919415 L93.7796103,18.6919415 L91.4911865,12.9786634 L86.456654,12.9786634 L86.456654,5.09433962 L79.076487,6.40839358 L79.076487,12.9786634 L75.3577982,12.9786634 L75.3577982,18.6919415 L79.076487,18.6919415 L79.076487,31.7753483 C79.076487,34.9366955 80.0490671,37.393405 81.9942274,39.145477 C83.9393877,40.8975489 86.6473559,41.7735849 90.1181322,41.7735849 Z M112.743238,40.754717 C114.982875,40.754717 116.918832,40.4657048 118.55111,39.8876804 C120.183388,39.3096559 121.701786,38.4799112 123.106304,37.3984462 L120.942587,32.1402886 C119.538068,32.9234184 118.22845,33.5200888 117.013732,33.9302997 C115.799014,34.3405105 114.432455,34.545616 112.914057,34.545616 C110.294821,34.545616 108.349374,34.0421754 107.077715,33.0352941 C105.806057,32.0284129 104.980428,30.5740289 104.600829,28.6721421 L123.220183,28.6721421 L123.220183,26.4346282 C123.220183,23.7869034 122.764664,21.390899 121.853625,19.2466149 C120.942587,17.1023307 119.538068,15.3962264 117.640071,14.1283019 C115.742074,12.8603774 113.407537,12.2264151 110.63646,12.2264151 C107.789464,12.2264151 105.322068,12.8137625 103.23427,13.9884573 C101.146473,15.1631521 99.5426655,16.8319645 98.422847,18.9948946 C97.3030285,21.1578246 96.7431193,23.6750277 96.7431193,26.5465039 C96.7431193,30.9842397 98.1001874,34.4617092 100.814324,36.9789123 C103.52846,39.4961154 107.504765,40.754717 112.743238,40.754717 Z M116.091743,23.4339623 L104.889908,23.4339623 C105.184209,21.7712264 105.827993,20.5064858 106.821259,19.6397406 C107.814525,18.7729953 109.046911,18.3396226 110.518416,18.3396226 C111.989922,18.3396226 113.194717,18.7641509 114.132802,19.6132075 C115.070886,20.4622642 115.723867,21.7358491 116.091743,23.4339623 Z M133.727383,41.7735849 L133.727383,24.9843221 C135.332462,23.5852169 137.061744,22.4319004 138.915229,21.5243727 C140.768713,20.616845 142.326022,20.1630811 143.587156,20.1630811 L142.096725,14.2641509 C140.720943,14.2641509 139.134972,14.7368216 137.338812,15.682163 C135.542651,16.6275044 133.975788,17.6862867 132.638222,18.85851 L130.173279,14.2641509 L126.275229,14.2641509 L126.275229,41.7735849 L133.727383,41.7735849 Z M145.623853,54 L152.984934,53.4173838 L152.984934,40.5998263 C154.734854,41.4931712 156.389671,41.9398437 157.949383,41.9398437 C160.878599,41.9398437 163.408376,41.3183864 165.538714,40.0754717 C167.669053,38.832557 169.295338,37.0847083 170.41757,34.8319255 C171.539801,32.5791427 172.100917,29.9767901 172.100917,27.0248678 C172.100917,22.480461 170.85505,18.8779506 168.363315,16.2173364 C165.871579,13.5567222 162.476352,12.2264151 158.177634,12.2264151 C155.552752,12.2264151 153.11808,13.11976 150.873616,14.9064498 L150.873616,14.9064498 L149.389987,12.9838162 L145.623853,12.9838162 L145.623853,54 Z M158.563467,34.6415094 C156.891551,34.6415094 155.293943,34.1132075 153.770642,33.0566038 L153.770642,33.0566038 L153.770642,19.9811321 C155.405404,18.8867925 157.003012,18.3396226 158.563467,18.3396226 C160.569766,18.3396226 162.139509,19.0849057 163.272696,20.5754717 C164.405883,22.0660377 164.972477,24.0188679 164.972477,26.4339623 C164.972477,28.8490566 164.396595,30.8207547 163.244831,32.3490566 C162.093067,33.8773585 160.532612,34.6415094 158.563467,34.6415094 Z M190.137733,40.754717 C192.37737,40.754717 194.313327,40.4657048 195.945605,39.8876804 C197.577883,39.3096559 199.096281,38.4799112 200.500799,37.3984462 L198.337082,32.1402886 C196.932564,32.9234184 195.622946,33.5200888 194.408227,33.9302997 C193.193509,34.3405105 191.826951,34.545616 190.308553,34.545616 C187.689316,34.545616 185.743869,34.0421754 184.472211,33.0352941 C183.200552,32.0284129 182.374924,30.5740289 181.995324,28.6721421 L200.614679,28.6721421 L200.614679,26.4346282 C200.614679,23.7869034 200.15916,21.390899 199.248121,19.2466149 C198.337082,17.1023307 196.932564,15.3962264 195.034566,14.1283019 C193.136569,12.8603774 190.802032,12.2264151 188.030956,12.2264151 C185.18396,12.2264151 182.716563,12.8137625 180.628766,13.9884573 C178.540969,15.1631521 176.937161,16.8319645 175.817342,18.9948946 C174.697524,21.1578246 174.137615,23.6750277 174.137615,26.5465039 C174.137615,30.9842397 175.494683,34.4617092 178.208819,36.9789123 C180.922956,39.4961154 184.89926,40.754717 190.137733,40.754717 Z M193.486239,23.4339623 L182.284404,23.4339623 C182.578705,21.7712264 183.222488,20.5064858 184.215755,19.6397406 C185.209021,18.7729953 186.441406,18.3396226 187.912912,18.3396226 C189.384417,18.3396226 190.589212,18.7641509 191.527297,19.6132075 C192.465382,20.4622642 193.118362,21.7358491 193.486239,23.4339623 Z M216.393362,41.7735849 C217.308731,41.7735849 218.328987,41.6021866 219.454128,41.2593899 C220.57927,40.9165932 221.427894,40.5166637 222,40.0596015 L219.825997,34.6891201 C218.796207,35.1842709 217.785486,35.4318462 216.793836,35.4318462 C215.497062,35.4318462 214.495877,34.974784 213.790279,34.0606595 C213.084682,33.146535 212.731883,31.9467466 212.731883,30.4612943 L212.731883,18.6919415 L220.05484,18.6919415 L217.766416,12.9786634 L212.731883,12.9786634 L212.731883,5.09433962 L205.351716,6.40839358 L205.351716,12.9786634 L201.633028,12.9786634 L201.633028,18.6919415 L205.351716,18.6919415 L205.351716,31.7753483 C205.351716,34.9366955 206.324296,37.393405 208.269457,39.145477 C210.214617,40.8975489 212.922585,41.7735849 216.393362,41.7735849 Z"></path></g></g></g></svg> 